<svg xmlns="http://www.w3.org/2000/svg" width="28" height="32" fill="none" viewBox="0 0 28 32"><mask id="mask0" width="28" height="32" x="0" y="0" mask-type="alpha" maskUnits="userSpaceOnUse"><path fill="url(#paint0_linear)" d="M0 0H27.429V32H0V0Z"/></mask><g mask="url(#mask0)"><path fill="#fff" fill-rule="evenodd" d="M25.1429 14.8568L20.5714 19.4283H15.9999L11.9999 23.4284V19.4283H6.85693V2.28522H25.1429V14.8568Z" clip-rule="evenodd"/><path fill="#65459B" fill-rule="evenodd" d="M25.1432 14.857L20.5717 19.4285H16.0002L12.0002 23.4286V19.4285H6.85724V2.28544H25.1432V14.857ZM5.71437 -0.000305176L0 5.71406V26.2858H6.85724V32.0001L12.5716 26.2858H17.1431L27.429 15.9999V-0.000305176H5.71437Z" clip-rule="evenodd"/></g><path fill="#65459B" fill-rule="evenodd" d="M19.4287 13.1425H21.7145V6.28522H19.4287V13.1425Z" clip-rule="evenodd"/><path fill="#65459B" fill-rule="evenodd" d="M13.1433 13.1425H15.4291V6.28522H13.1433V13.1425Z" clip-rule="evenodd"/><defs><linearGradient id="paint0_linear" x1="13.714" x2="13.714" y1="0" y2="32" gradientUnits="userSpaceOnUse"><stop stop-color="#A2A2A2"/><stop offset="1" stop-color="#8C8C8C"/></linearGradient></defs></svg>