<?xml version="1.0" encoding="UTF-8" standalone="no"?>
<svg
   xmlns:dc="http://purl.org/dc/elements/1.1/"
   xmlns:cc="http://creativecommons.org/ns#"
   xmlns:rdf="http://www.w3.org/1999/02/22-rdf-syntax-ns#"
   xmlns:svg="http://www.w3.org/2000/svg"
   xmlns="http://www.w3.org/2000/svg"
   xmlns:sodipodi="http://sodipodi.sourceforge.net/DTD/sodipodi-0.dtd"
   xmlns:inkscape="http://www.inkscape.org/namespaces/inkscape"
   height="450"
   viewBox="0 0 450 450"
   width="450"
   version="1.1"
   id="svg897"
   sodipodi:docname="walletconnect-v2.svg"
   inkscape:version="1.0.2 (e86c870879, 2021-01-15)">
  <metadata
     id="metadata903">
    <rdf:RDF>
      <cc:Work
         rdf:about="">
        <dc:format>image/svg+xml</dc:format>
        <dc:type
           rdf:resource="http://purl.org/dc/dcmitype/StillImage" />
        <dc:title></dc:title>
      </cc:Work>
    </rdf:RDF>
  </metadata>
  <defs
     id="defs901">
    <rect
       x="111.91452"
       y="48.772369"
       width="166.89154"
       height="133.29593"
       id="rect2083" />
  </defs>
  <sodipodi:namedview
     pagecolor="#ffffff"
     bordercolor="#666666"
     borderopacity="1"
     objecttolerance="10"
     gridtolerance="10"
     guidetolerance="10"
     inkscape:pageopacity="0"
     inkscape:pageshadow="2"
     inkscape:window-width="1910"
     inkscape:window-height="1070"
     id="namedview899"
     showgrid="false"
     inkscape:zoom="0.69060762"
     inkscape:cx="186.30656"
     inkscape:cy="421.54703"
     inkscape:window-x="0"
     inkscape:window-y="0"
     inkscape:window-maximized="0"
     inkscape:current-layer="svg897"
     inkscape:document-rotation="0"
     inkscape:pagecheckerboard="false"
     inkscape:snap-bbox="true"
     inkscape:snap-page="true" />
  <rect
     style="fill:#3b99fc;fill-opacity:1;stroke:none;stroke-width:2.41167;stroke-miterlimit:4;stroke-dasharray:none;stroke-opacity:1;stop-color:#000000"
     id="rect844"
     width="450"
     height="450"
     x="0"
     y="0" />
  <path
     d="m 106.91806,150.33841 c 65.21496,-63.850895 170.94931,-63.850895 236.16428,0 l 7.84872,7.68455 c 3.26075,3.19255 3.26075,8.36869 0,11.56123 l -26.84892,26.28734 c -1.63038,1.59627 -4.27374,1.59627 -5.90411,0 l -10.80078,-10.57487 c -45.49559,-44.54397 -119.25851,-44.54397 -164.75411,0 l -11.56674,11.32481 c -1.63037,1.59627 -4.27373,1.59627 -5.90411,0 L 98.303368,170.33413 c -3.26075,-3.19254 -3.26075,-8.36868 0,-11.56122 z m 291.69039,54.365 23.8956,23.39586 c 3.26073,3.19253 3.26075,8.36863 4e-5,11.56118 L 314.7572,345.1553 c -3.26073,3.19257 -8.54745,3.1926 -11.80822,8e-5 -1e-5,-10e-6 -3e-5,-3e-5 -4e-5,-4e-5 l -76.47219,-74.87276 c -0.81519,-0.79814 -2.13687,-0.79814 -2.95206,0 0,0 -1e-5,1e-5 -1e-5,1e-5 l -76.47056,74.87271 c -3.26072,3.19257 -8.54744,3.19263 -11.80822,1.1e-4 -2e-5,-1e-5 -4e-5,-3e-5 -6e-5,-5e-5 L 27.495952,239.65911 c -3.260747,-3.19254 -3.260747,-8.36868 0,-11.56123 l 23.895639,-23.39582 c 3.260747,-3.19255 8.547466,-3.19255 11.808217,0 l 76.473302,74.87381 c 0.81518,0.79814 2.13686,0.79814 2.95205,0 1e-5,-1e-5 2e-5,-2e-5 4e-5,-3e-5 l 76.46947,-74.87378 c 3.26067,-3.19262 8.54739,-3.19274 11.80821,-2.7e-4 5e-5,5e-5 9e-5,9e-5 1.4e-4,1.4e-4 l 76.4732,74.87391 c 0.81518,0.79813 2.13686,0.79813 2.95205,0 l 76.47197,-74.87244 c 3.26075,-3.19255 8.54746,-3.19255 11.80821,1e-5 z"
     fill="#3b99fc"
     id="path895"
     style="fill:#db0c7c;fill-opacity:1" />
  <text
     xml:space="preserve"
     id="text2081"
     style="font-style:normal;font-weight:normal;font-size:40px;line-height:1.25;font-family:sans-serif;white-space:pre;shape-inside:url(#rect2083);fill:#000000;fill-opacity:1;stroke:none;" />
  <text
     xml:space="preserve"
     style="font-style:normal;font-variant:normal;font-weight:normal;font-stretch:normal;font-size:100.615px;line-height:1.25;font-family:sans-serif;font-variant-ligatures:normal;font-variant-position:normal;font-variant-caps:normal;font-variant-numeric:normal;font-variant-alternates:normal;font-variant-east-asian:normal;font-feature-settings:normal;font-variation-settings:normal;text-indent:0;text-align:center;text-decoration:none;text-decoration-line:none;text-decoration-style:solid;text-decoration-color:#000000;letter-spacing:normal;word-spacing:normal;text-transform:none;writing-mode:lr-tb;direction:ltr;text-orientation:mixed;dominant-baseline:auto;baseline-shift:baseline;text-anchor:middle;white-space:normal;shape-padding:0;shape-margin:0;inline-size:0;opacity:1;vector-effect:none;fill:#fffffc;fill-opacity:1;stroke:#fffffc;stroke-width:7.46623;stroke-linecap:butt;stroke-linejoin:miter;stroke-miterlimit:4;stroke-dasharray:none;stroke-dashoffset:0;stroke-opacity:1;stop-color:#000000;stop-opacity:1"
     x="171.10368"
     y="207.33397"
     id="text2097"
     transform="matrix(2.1218642,0,0,2.1218642,-127.87952,-97.815694)"><tspan
       sodipodi:role="line"
       id="tspan2095"
       x="171.10368"
       y="207.33397">2</tspan></text>
</svg>
